<?xml version="1.0" encoding="UTF-8" standalone="no"?><svg xmlns="http://www.w3.org/2000/svg" xmlns:xlink="http://www.w3.org/1999/xlink" contentScriptType="application/ecmascript" contentStyleType="text/css" height="660px" preserveAspectRatio="none" style="width:577px;height:660px;" version="1.1" viewBox="0 0 577 660" width="577px" zoomAndPan="magnify"><defs><filter height="300%" id="f94tufvmarm96" width="300%" x="-1" y="-1"><feGaussianBlur result="blurOut" stdDeviation="2.0"/><feColorMatrix in="blurOut" result="blurOut2" type="matrix" values="0 0 0 0 0 0 0 0 0 0 0 0 0 0 0 0 0 0 .4 0"/><feOffset dx="4.0" dy="4.0" in="blurOut2" result="blurOut3"/><feBlend in="SourceGraphic" in2="blurOut3" mode="normal"/></filter></defs><g><!--MD5=[f3ceb4668fcff3c138e8b65efc1304f7]
cluster USERS--><polygon fill="#FFFFFF" filter="url(#f94tufvmarm96)" points="14,16,70,16,77,38.2969,293,38.2969,293,648,14,648,14,16" style="stroke: #000000; stroke-width: 1.5;"/><line style="stroke: #000000; stroke-width: 1.5;" x1="14" x2="77" y1="38.2969" y2="38.2969"/><text fill="#000000" font-family="sans-serif" font-size="14" font-weight="bold" lengthAdjust="spacingAndGlyphs" textLength="50" x="18" y="30.9951">USERS</text><!--MD5=[bc626bd40949d04a3504d83696d54a38]
cluster CORE--><polygon fill="#FFFFFF" filter="url(#f94tufvmarm96)" points="312,220,360,220,367,242.2969,555,242.2969,555,418,312,418,312,220" style="stroke: #000000; stroke-width: 1.5;"/><line style="stroke: #000000; stroke-width: 1.5;" x1="312" x2="367" y1="242.2969" y2="242.2969"/><text fill="#000000" font-family="sans-serif" font-size="14" font-weight="bold" lengthAdjust="spacingAndGlyphs" textLength="42" x="316" y="234.9951">CORE</text><!--MD5=[7b57f7066b803747d2119f99dd1555d4]
class Profile--><rect fill="#FEFECE" filter="url(#f94tufvmarm96)" height="99.2188" id="Profile" style="stroke: #A80036; stroke-width: 1.5;" width="103" x="164.5" y="43"/><ellipse cx="193.9" cy="59" fill="#ADD1B2" rx="11" ry="11" style="stroke: #A80036; stroke-width: 1.0;"/><path d="M196.8688,64.6406 Q196.2906,64.9375 195.65,65.0859 Q195.0094,65.2344 194.3063,65.2344 Q191.8063,65.2344 190.4859,63.5859 Q189.1656,61.9375 189.1656,58.8125 Q189.1656,55.6875 190.4859,54.0313 Q191.8063,52.375 194.3063,52.375 Q195.0094,52.375 195.6578,52.5313 Q196.3063,52.6875 196.8688,52.9844 L196.8688,55.7031 Q196.2438,55.125 195.65,54.8516 Q195.0563,54.5781 194.4313,54.5781 Q193.0875,54.5781 192.4,55.6484 Q191.7125,56.7188 191.7125,58.8125 Q191.7125,60.9063 192.4,61.9766 Q193.0875,63.0469 194.4313,63.0469 Q195.0563,63.0469 195.65,62.7734 Q196.2438,62.5 196.8688,61.9219 L196.8688,64.6406 Z "/><text fill="#000000" font-family="sans-serif" font-size="12" lengthAdjust="spacingAndGlyphs" textLength="39" x="211.1" y="63.1543">Profile</text><line style="stroke: #A80036; stroke-width: 1.5;" x1="165.5" x2="266.5" y1="75" y2="75"/><polygon fill="none" points="175.5,81,179.5,85,175.5,89,171.5,85" style="stroke: #B38D22; stroke-width: 1.0;"/><text fill="#000000" font-family="sans-serif" font-size="11" lengthAdjust="spacingAndGlyphs" textLength="58" x="184.5" y="89.2104">user - PK?</text><ellipse cx="175.5" cy="98.8047" fill="none" rx="3" ry="3" style="stroke: #038048; stroke-width: 1.0;"/><text fill="#000000" font-family="sans-serif" font-size="11" lengthAdjust="spacingAndGlyphs" textLength="17" x="184.5" y="102.0151">bio</text><ellipse cx="175.5" cy="111.6094" fill="none" rx="3" ry="3" style="stroke: #038048; stroke-width: 1.0;"/><text fill="#000000" font-family="sans-serif" font-size="11" lengthAdjust="spacingAndGlyphs" textLength="42" x="184.5" y="114.8198">country</text><ellipse cx="175.5" cy="124.4141" fill="none" rx="3" ry="3" style="stroke: #038048; stroke-width: 1.0;"/><text fill="#000000" font-family="sans-serif" font-size="11" lengthAdjust="spacingAndGlyphs" textLength="77" x="184.5" y="127.6245">personal_site</text><line style="stroke: #A80036; stroke-width: 1.5;" x1="165.5" x2="266.5" y1="134.2188" y2="134.2188"/><!--MD5=[597e0764983597437f4ec3f6f7506c36]
class Marker--><rect fill="#FEFECE" filter="url(#f94tufvmarm96)" height="201.6563" id="Marker" style="stroke: #A80036; stroke-width: 1.5;" width="95" x="22.5" y="227.5"/><ellipse cx="46.5" cy="243.5" fill="#ADD1B2" rx="11" ry="11" style="stroke: #A80036; stroke-width: 1.0;"/><path d="M49.4688,249.1406 Q48.8906,249.4375 48.25,249.5859 Q47.6094,249.7344 46.9063,249.7344 Q44.4063,249.7344 43.0859,248.0859 Q41.7656,246.4375 41.7656,243.3125 Q41.7656,240.1875 43.0859,238.5313 Q44.4063,236.875 46.9063,236.875 Q47.6094,236.875 48.2578,237.0313 Q48.9063,237.1875 49.4688,237.4844 L49.4688,240.2031 Q48.8438,239.625 48.25,239.3516 Q47.6563,239.0781 47.0313,239.0781 Q45.6875,239.0781 45,240.1484 Q44.3125,241.2188 44.3125,243.3125 Q44.3125,245.4063 45,246.4766 Q45.6875,247.5469 47.0313,247.5469 Q47.6563,247.5469 48.25,247.2734 Q48.8438,247 49.4688,246.4219 L49.4688,249.1406 Z "/><text fill="#000000" font-family="sans-serif" font-size="12" lengthAdjust="spacingAndGlyphs" textLength="43" x="62.5" y="247.6543">Marker</text><line style="stroke: #A80036; stroke-width: 1.5;" x1="23.5" x2="116.5" y1="259.5" y2="259.5"/><polygon fill="none" points="33.5,265.5,37.5,269.5,33.5,273.5,29.5,269.5" style="stroke: #B38D22; stroke-width: 1.0;"/><text fill="#000000" font-family="sans-serif" font-size="11" lengthAdjust="spacingAndGlyphs" textLength="60" x="42.5" y="273.7104">owner - FK</text><ellipse cx="33.5" cy="283.3047" fill="none" rx="3" ry="3" style="stroke: #038048; stroke-width: 1.0;"/><text fill="#000000" font-family="sans-serif" font-size="11" lengthAdjust="spacingAndGlyphs" textLength="39" x="42.5" y="286.5151">source</text><ellipse cx="33.5" cy="296.1094" fill="none" rx="3" ry="3" style="stroke: #038048; stroke-width: 1.0;"/><text fill="#000000" font-family="sans-serif" font-size="11" lengthAdjust="spacingAndGlyphs" textLength="69" x="42.5" y="299.3198">uploaded_at</text><ellipse cx="33.5" cy="308.9141" fill="none" rx="3" ry="3" style="stroke: #038048; stroke-width: 1.0;"/><text fill="#000000" font-family="sans-serif" font-size="11" lengthAdjust="spacingAndGlyphs" textLength="37" x="42.5" y="312.1245">Author</text><ellipse cx="33.5" cy="321.7188" fill="none" rx="3" ry="3" style="stroke: #038048; stroke-width: 1.0;"/><text fill="#000000" font-family="sans-serif" font-size="11" lengthAdjust="spacingAndGlyphs" textLength="21" x="42.5" y="324.9292">title</text><ellipse cx="33.5" cy="334.5234" fill="none" rx="3" ry="3" style="stroke: #038048; stroke-width: 1.0;"/><text fill="#000000" font-family="sans-serif" font-size="11" lengthAdjust="spacingAndGlyphs" textLength="22" x="42.5" y="337.7339">patt</text><polygon fill="none" points="33.5,342.3281,37.5,346.3281,33.5,350.3281,29.5,346.3281" style="stroke: #B38D22; stroke-width: 1.0;"/><text fill="#000000" font-family="sans-serif" font-size="11" lengthAdjust="spacingAndGlyphs" textLength="60" x="42.5" y="350.5386">owner - FK</text><ellipse cx="33.5" cy="360.1328" fill="none" rx="3" ry="3" style="stroke: #038048; stroke-width: 1.0;"/><text fill="#000000" font-family="sans-serif" font-size="11" lengthAdjust="spacingAndGlyphs" textLength="39" x="42.5" y="363.3433">source</text><ellipse cx="33.5" cy="372.9375" fill="none" rx="3" ry="3" style="stroke: #038048; stroke-width: 1.0;"/><text fill="#000000" font-family="sans-serif" font-size="11" lengthAdjust="spacingAndGlyphs" textLength="69" x="42.5" y="376.1479">uploaded_at</text><ellipse cx="33.5" cy="385.7422" fill="none" rx="3" ry="3" style="stroke: #038048; stroke-width: 1.0;"/><text fill="#000000" font-family="sans-serif" font-size="11" lengthAdjust="spacingAndGlyphs" textLength="37" x="42.5" y="388.9526">Author</text><ellipse cx="33.5" cy="398.5469" fill="none" rx="3" ry="3" style="stroke: #038048; stroke-width: 1.0;"/><text fill="#000000" font-family="sans-serif" font-size="11" lengthAdjust="spacingAndGlyphs" textLength="21" x="42.5" y="401.7573">title</text><ellipse cx="33.5" cy="411.3516" fill="none" rx="3" ry="3" style="stroke: #038048; stroke-width: 1.0;"/><text fill="#000000" font-family="sans-serif" font-size="11" lengthAdjust="spacingAndGlyphs" textLength="22" x="42.5" y="414.562">patt</text><line style="stroke: #A80036; stroke-width: 1.5;" x1="23.5" x2="116.5" y1="421.1563" y2="421.1563"/><!--MD5=[f7d575171bfec133d50f92f8beb2d6bd]
class Objects--><rect fill="#FEFECE" filter="url(#f94tufvmarm96)" height="252.875" id="Objects" style="stroke: #A80036; stroke-width: 1.5;" width="95" x="152.5" y="202"/><ellipse cx="174.7" cy="218" fill="#ADD1B2" rx="11" ry="11" style="stroke: #A80036; stroke-width: 1.0;"/><path d="M177.6688,223.6406 Q177.0906,223.9375 176.45,224.0859 Q175.8094,224.2344 175.1063,224.2344 Q172.6063,224.2344 171.2859,222.5859 Q169.9656,220.9375 169.9656,217.8125 Q169.9656,214.6875 171.2859,213.0313 Q172.6063,211.375 175.1063,211.375 Q175.8094,211.375 176.4578,211.5313 Q177.1063,211.6875 177.6688,211.9844 L177.6688,214.7031 Q177.0438,214.125 176.45,213.8516 Q175.8563,213.5781 175.2313,213.5781 Q173.8875,213.5781 173.2,214.6484 Q172.5125,215.7188 172.5125,217.8125 Q172.5125,219.9063 173.2,220.9766 Q173.8875,222.0469 175.2313,222.0469 Q175.8563,222.0469 176.45,221.7734 Q177.0438,221.5 177.6688,220.9219 L177.6688,223.6406 Z "/><text fill="#000000" font-family="sans-serif" font-size="12" lengthAdjust="spacingAndGlyphs" textLength="47" x="190.3" y="222.1543">Objects</text><line style="stroke: #A80036; stroke-width: 1.5;" x1="153.5" x2="246.5" y1="234" y2="234"/><polygon fill="none" points="163.5,240,167.5,244,163.5,248,159.5,244" style="stroke: #B38D22; stroke-width: 1.0;"/><text fill="#000000" font-family="sans-serif" font-size="11" lengthAdjust="spacingAndGlyphs" textLength="60" x="172.5" y="248.2104">owner - FK</text><ellipse cx="163.5" cy="257.8047" fill="none" rx="3" ry="3" style="stroke: #038048; stroke-width: 1.0;"/><text fill="#000000" font-family="sans-serif" font-size="11" lengthAdjust="spacingAndGlyphs" textLength="39" x="172.5" y="261.0151">source</text><ellipse cx="163.5" cy="270.6094" fill="none" rx="3" ry="3" style="stroke: #038048; stroke-width: 1.0;"/><text fill="#000000" font-family="sans-serif" font-size="11" lengthAdjust="spacingAndGlyphs" textLength="69" x="172.5" y="273.8198">uploaded_at</text><ellipse cx="163.5" cy="283.4141" fill="none" rx="3" ry="3" style="stroke: #038048; stroke-width: 1.0;"/><text fill="#000000" font-family="sans-serif" font-size="11" lengthAdjust="spacingAndGlyphs" textLength="37" x="172.5" y="286.6245">author</text><ellipse cx="163.5" cy="296.2188" fill="none" rx="3" ry="3" style="stroke: #038048; stroke-width: 1.0;"/><text fill="#000000" font-family="sans-serif" font-size="11" lengthAdjust="spacingAndGlyphs" textLength="21" x="172.5" y="299.4292">title</text><ellipse cx="163.5" cy="309.0234" fill="none" rx="3" ry="3" style="stroke: #038048; stroke-width: 1.0;"/><text fill="#000000" font-family="sans-serif" font-size="11" lengthAdjust="spacingAndGlyphs" textLength="30" x="172.5" y="312.2339">scale</text><ellipse cx="163.5" cy="321.8281" fill="none" rx="3" ry="3" style="stroke: #038048; stroke-width: 1.0;"/><text fill="#000000" font-family="sans-serif" font-size="11" lengthAdjust="spacingAndGlyphs" textLength="45" x="172.5" y="325.0386">position</text><ellipse cx="163.5" cy="334.6328" fill="none" rx="3" ry="3" style="stroke: #038048; stroke-width: 1.0;"/><text fill="#000000" font-family="sans-serif" font-size="11" lengthAdjust="spacingAndGlyphs" textLength="44" x="172.5" y="337.8433">rotation</text><polygon fill="none" points="163.5,342.4375,167.5,346.4375,163.5,350.4375,159.5,346.4375" style="stroke: #B38D22; stroke-width: 1.0;"/><text fill="#000000" font-family="sans-serif" font-size="11" lengthAdjust="spacingAndGlyphs" textLength="60" x="172.5" y="350.6479">owner - FK</text><ellipse cx="163.5" cy="360.2422" fill="none" rx="3" ry="3" style="stroke: #038048; stroke-width: 1.0;"/><text fill="#000000" font-family="sans-serif" font-size="11" lengthAdjust="spacingAndGlyphs" textLength="39" x="172.5" y="363.4526">source</text><ellipse cx="163.5" cy="373.0469" fill="none" rx="3" ry="3" style="stroke: #038048; stroke-width: 1.0;"/><text fill="#000000" font-family="sans-serif" font-size="11" lengthAdjust="spacingAndGlyphs" textLength="69" x="172.5" y="376.2573">uploaded_at</text><ellipse cx="163.5" cy="385.8516" fill="none" rx="3" ry="3" style="stroke: #038048; stroke-width: 1.0;"/><text fill="#000000" font-family="sans-serif" font-size="11" lengthAdjust="spacingAndGlyphs" textLength="37" x="172.5" y="389.062">author</text><ellipse cx="163.5" cy="398.6563" fill="none" rx="3" ry="3" style="stroke: #038048; stroke-width: 1.0;"/><text fill="#000000" font-family="sans-serif" font-size="11" lengthAdjust="spacingAndGlyphs" textLength="21" x="172.5" y="401.8667">title</text><ellipse cx="163.5" cy="411.4609" fill="none" rx="3" ry="3" style="stroke: #038048; stroke-width: 1.0;"/><text fill="#000000" font-family="sans-serif" font-size="11" lengthAdjust="spacingAndGlyphs" textLength="30" x="172.5" y="414.6714">scale</text><ellipse cx="163.5" cy="424.2656" fill="none" rx="3" ry="3" style="stroke: #038048; stroke-width: 1.0;"/><text fill="#000000" font-family="sans-serif" font-size="11" lengthAdjust="spacingAndGlyphs" textLength="45" x="172.5" y="427.4761">position</text><ellipse cx="163.5" cy="437.0703" fill="none" rx="3" ry="3" style="stroke: #038048; stroke-width: 1.0;"/><text fill="#000000" font-family="sans-serif" font-size="11" lengthAdjust="spacingAndGlyphs" textLength="44" x="172.5" y="440.2808">rotation</text><line style="stroke: #A80036; stroke-width: 1.5;" x1="153.5" x2="246.5" y1="446.875" y2="446.875"/><!--MD5=[b7324ce2f323f0f83d14dd789ffc2879]
class Artwork--><rect fill="#FEFECE" filter="url(#f94tufvmarm96)" height="124.8281" id="Artwork" style="stroke: #A80036; stroke-width: 1.5;" width="115" x="155.5" y="515"/><ellipse cx="186.7" cy="531" fill="#ADD1B2" rx="11" ry="11" style="stroke: #A80036; stroke-width: 1.0;"/><path d="M189.6688,536.6406 Q189.0906,536.9375 188.45,537.0859 Q187.8094,537.2344 187.1063,537.2344 Q184.6063,537.2344 183.2859,535.5859 Q181.9656,533.9375 181.9656,530.8125 Q181.9656,527.6875 183.2859,526.0313 Q184.6063,524.375 187.1063,524.375 Q187.8094,524.375 188.4578,524.5313 Q189.1063,524.6875 189.6688,524.9844 L189.6688,527.7031 Q189.0438,527.125 188.45,526.8516 Q187.8563,526.5781 187.2313,526.5781 Q185.8875,526.5781 185.2,527.6484 Q184.5125,528.7188 184.5125,530.8125 Q184.5125,532.9063 185.2,533.9766 Q185.8875,535.0469 187.2313,535.0469 Q187.8563,535.0469 188.45,534.7734 Q189.0438,534.5 189.6688,533.9219 L189.6688,536.6406 Z "/><text fill="#000000" font-family="sans-serif" font-size="12" lengthAdjust="spacingAndGlyphs" textLength="47" x="204.3" y="535.1543">Artwork</text><line style="stroke: #A80036; stroke-width: 1.5;" x1="156.5" x2="269.5" y1="547" y2="547"/><polygon fill="none" points="166.5,553,170.5,557,166.5,561,162.5,557" style="stroke: #B38D22; stroke-width: 1.0;"/><text fill="#000000" font-family="sans-serif" font-size="11" lengthAdjust="spacingAndGlyphs" textLength="62" x="175.5" y="561.2104">author - FK</text><polygon fill="none" points="166.5,565.8047,170.5,569.8047,166.5,573.8047,162.5,569.8047" style="stroke: #B38D22; stroke-width: 1.0;"/><text fill="#000000" font-family="sans-serif" font-size="11" lengthAdjust="spacingAndGlyphs" textLength="66" x="175.5" y="574.0151">marker - FK</text><polygon fill="none" points="166.5,578.6094,170.5,582.6094,166.5,586.6094,162.5,582.6094" style="stroke: #B38D22; stroke-width: 1.0;"/><text fill="#000000" font-family="sans-serif" font-size="11" lengthAdjust="spacingAndGlyphs" textLength="89" x="175.5" y="586.8198">augmented - FK</text><ellipse cx="166.5" cy="596.4141" fill="none" rx="3" ry="3" style="stroke: #038048; stroke-width: 1.0;"/><text fill="#000000" font-family="sans-serif" font-size="11" lengthAdjust="spacingAndGlyphs" textLength="21" x="175.5" y="599.6245">title</text><ellipse cx="166.5" cy="609.2188" fill="none" rx="3" ry="3" style="stroke: #038048; stroke-width: 1.0;"/><text fill="#000000" font-family="sans-serif" font-size="11" lengthAdjust="spacingAndGlyphs" textLength="63" x="175.5" y="612.4292">description</text><ellipse cx="166.5" cy="622.0234" fill="none" rx="3" ry="3" style="stroke: #038048; stroke-width: 1.0;"/><text fill="#000000" font-family="sans-serif" font-size="11" lengthAdjust="spacingAndGlyphs" textLength="60" x="175.5" y="625.2339">created_at</text><line style="stroke: #A80036; stroke-width: 1.5;" x1="156.5" x2="269.5" y1="631.8281" y2="631.8281"/><!--MD5=[108e1283c2e46438ec657fd9e9db8314]
class Artwork2--><rect fill="#FEFECE" filter="url(#f94tufvmarm96)" height="163.2422" id="Artwork2" style="stroke: #A80036; stroke-width: 1.5;" width="89" x="458.5" y="247"/><ellipse cx="474.4" cy="263" fill="#ADD1B2" rx="11" ry="11" style="stroke: #A80036; stroke-width: 1.0;"/><path d="M477.3688,268.6406 Q476.7906,268.9375 476.15,269.0859 Q475.5094,269.2344 474.8063,269.2344 Q472.3063,269.2344 470.9859,267.5859 Q469.6656,265.9375 469.6656,262.8125 Q469.6656,259.6875 470.9859,258.0313 Q472.3063,256.375 474.8063,256.375 Q475.5094,256.375 476.1578,256.5313 Q476.8063,256.6875 477.3688,256.9844 L477.3688,259.7031 Q476.7438,259.125 476.15,258.8516 Q475.5563,258.5781 474.9313,258.5781 Q473.5875,258.5781 472.9,259.6484 Q472.2125,260.7188 472.2125,262.8125 Q472.2125,264.9063 472.9,265.9766 Q473.5875,267.0469 474.9313,267.0469 Q475.5563,267.0469 476.15,266.7734 Q476.7438,266.5 477.3688,265.9219 L477.3688,268.6406 Z "/><text fill="#000000" font-family="sans-serif" font-size="12" lengthAdjust="spacingAndGlyphs" textLength="55" x="488.6" y="267.1543">Artwork2</text><line style="stroke: #A80036; stroke-width: 1.5;" x1="459.5" x2="546.5" y1="279" y2="279"/><ellipse cx="469.5" cy="290" fill="none" rx="3" ry="3" style="stroke: #038048; stroke-width: 1.0;"/><text fill="#000000" font-family="sans-serif" font-size="11" lengthAdjust="spacingAndGlyphs" textLength="36" x="478.5" y="293.2104">name;</text><ellipse cx="469.5" cy="302.8047" fill="none" rx="3" ry="3" style="stroke: #038048; stroke-width: 1.0;"/><text fill="#000000" font-family="sans-serif" font-size="11" lengthAdjust="spacingAndGlyphs" textLength="26" x="478.5" y="306.0151">patt;</text><ellipse cx="469.5" cy="315.6094" fill="none" rx="3" ry="3" style="stroke: #038048; stroke-width: 1.0;"/><text fill="#000000" font-family="sans-serif" font-size="11" lengthAdjust="spacingAndGlyphs" textLength="14" x="478.5" y="318.8198">gif</text><ellipse cx="469.5" cy="328.4141" fill="none" rx="3" ry="3" style="stroke: #038048; stroke-width: 1.0;"/><text fill="#000000" font-family="sans-serif" font-size="11" lengthAdjust="spacingAndGlyphs" textLength="30" x="478.5" y="331.6245">scale</text><ellipse cx="469.5" cy="341.2188" fill="none" rx="3" ry="3" style="stroke: #038048; stroke-width: 1.0;"/><text fill="#000000" font-family="sans-serif" font-size="11" lengthAdjust="spacingAndGlyphs" textLength="45" x="478.5" y="344.4292">position</text><ellipse cx="469.5" cy="354.0234" fill="none" rx="3" ry="3" style="stroke: #038048; stroke-width: 1.0;"/><text fill="#000000" font-family="sans-serif" font-size="11" lengthAdjust="spacingAndGlyphs" textLength="44" x="478.5" y="357.2339">rotation</text><ellipse cx="469.5" cy="366.8281" fill="none" rx="3" ry="3" style="stroke: #038048; stroke-width: 1.0;"/><text fill="#000000" font-family="sans-serif" font-size="11" lengthAdjust="spacingAndGlyphs" textLength="21" x="478.5" y="370.0386">title</text><ellipse cx="469.5" cy="379.6328" fill="none" rx="3" ry="3" style="stroke: #038048; stroke-width: 1.0;"/><text fill="#000000" font-family="sans-serif" font-size="11" lengthAdjust="spacingAndGlyphs" textLength="63" x="478.5" y="382.8433">description</text><ellipse cx="469.5" cy="392.4375" fill="none" rx="3" ry="3" style="stroke: #038048; stroke-width: 1.0;"/><text fill="#000000" font-family="sans-serif" font-size="11" lengthAdjust="spacingAndGlyphs" textLength="60" x="478.5" y="395.6479">created_at</text><line style="stroke: #A80036; stroke-width: 1.5;" x1="459.5" x2="546.5" y1="402.2422" y2="402.2422"/><!--MD5=[5a8c004168b5e10d08cbd2822547e7d4]
class Exhibit--><rect fill="#FEFECE" filter="url(#f94tufvmarm96)" height="112.0234" id="Exhibit" style="stroke: #A80036; stroke-width: 1.5;" width="103" x="320.5" y="272.5"/><ellipse cx="349" cy="288.5" fill="#ADD1B2" rx="11" ry="11" style="stroke: #A80036; stroke-width: 1.0;"/><path d="M351.9688,294.1406 Q351.3906,294.4375 350.75,294.5859 Q350.1094,294.7344 349.4063,294.7344 Q346.9063,294.7344 345.5859,293.0859 Q344.2656,291.4375 344.2656,288.3125 Q344.2656,285.1875 345.5859,283.5313 Q346.9063,281.875 349.4063,281.875 Q350.1094,281.875 350.7578,282.0313 Q351.4063,282.1875 351.9688,282.4844 L351.9688,285.2031 Q351.3438,284.625 350.75,284.3516 Q350.1563,284.0781 349.5313,284.0781 Q348.1875,284.0781 347.5,285.1484 Q346.8125,286.2188 346.8125,288.3125 Q346.8125,290.4063 347.5,291.4766 Q348.1875,292.5469 349.5313,292.5469 Q350.1563,292.5469 350.75,292.2734 Q351.3438,292 351.9688,291.4219 L351.9688,294.1406 Z "/><text fill="#000000" font-family="sans-serif" font-size="12" lengthAdjust="spacingAndGlyphs" textLength="41" x="366" y="292.6543">Exhibit</text><line style="stroke: #A80036; stroke-width: 1.5;" x1="321.5" x2="422.5" y1="304.5" y2="304.5"/><polygon fill="none" points="331.5,310.5,335.5,314.5,331.5,318.5,327.5,314.5" style="stroke: #B38D22; stroke-width: 1.0;"/><text fill="#000000" font-family="sans-serif" font-size="11" lengthAdjust="spacingAndGlyphs" textLength="59" x="340.5" y="318.7104">owner - Fk</text><ellipse cx="331.5" cy="328.3047" fill="none" rx="3" ry="3" style="stroke: #038048; stroke-width: 1.0;"/><text fill="#000000" font-family="sans-serif" font-size="11" lengthAdjust="spacingAndGlyphs" textLength="32" x="340.5" y="331.5151">name</text><ellipse cx="331.5" cy="341.1094" fill="none" rx="3" ry="3" style="stroke: #038048; stroke-width: 1.0;"/><text fill="#000000" font-family="sans-serif" font-size="11" lengthAdjust="spacingAndGlyphs" textLength="24" x="340.5" y="344.3198">slug</text><ellipse cx="331.5" cy="353.9141" fill="none" rx="3" ry="3" style="stroke: #038048; stroke-width: 1.0;"/><text fill="#000000" font-family="sans-serif" font-size="11" lengthAdjust="spacingAndGlyphs" textLength="50" x="340.5" y="357.1245">artworks</text><ellipse cx="331.5" cy="366.7188" fill="none" rx="3" ry="3" style="stroke: #038048; stroke-width: 1.0;"/><text fill="#000000" font-family="sans-serif" font-size="11" lengthAdjust="spacingAndGlyphs" textLength="77" x="340.5" y="369.9292">creation_date</text><line style="stroke: #A80036; stroke-width: 1.5;" x1="321.5" x2="422.5" y1="376.5234" y2="376.5234"/><!--MD5=[2b94e9e8ff8490822f0afcd23df66124]
reverse link Marker to Artwork--><path d="M119.9388,427.846 C124.9161,437.0863 129.9847,446.2573 135,455 C146.3538,474.7921 159.4281,495.8998 171.5874,514.9194 " fill="none" id="Marker&lt;-Artwork" style="stroke: #A80036; stroke-width: 1.0;"/><polygon fill="#A80036" points="117.5034,423.3059,118.2329,433.1277,119.8669,427.712,125.2827,429.346,117.5034,423.3059" style="stroke: #A80036; stroke-width: 1.0;"/><text fill="#000000" font-family="sans-serif" font-size="13" lengthAdjust="spacingAndGlyphs" textLength="24" x="120.5186" y="440.0414">n..n</text><text fill="#000000" font-family="sans-serif" font-size="13" lengthAdjust="spacingAndGlyphs" textLength="24" x="141.4116" y="503.9008">n..n</text><!--MD5=[b2a1c4872a5bf8950e49f2595fde3e9f]
reverse link Profile to Artwork--><path d="M251.6873,160.5367 C257.2032,173.9448 262.0438,188.1563 265,202 C288.4821,311.9652 287.4185,344.8131 265,455 C260.9003,475.1499 253.3662,496.0952 245.2812,514.8475 " fill="none" id="Profile&lt;-Artwork" style="stroke: #A80036; stroke-width: 1.0;"/><polygon fill="none" points="245.2813,163.3584,243.5656,142.2383,258.0774,157.6787,245.2813,163.3584" style="stroke: #A80036; stroke-width: 1.0;"/><text fill="#000000" font-family="sans-serif" font-size="13" lengthAdjust="spacingAndGlyphs" textLength="24" x="221.7545" y="162.3483">1..n</text><text fill="#000000" font-family="sans-serif" font-size="13" lengthAdjust="spacingAndGlyphs" textLength="24" x="223.6262" y="503.8206">n..1</text><!--MD5=[732832c5f0663d67757fbc5daa8a0411]
reverse link Objects to Artwork--><path d="M207.6768,475.5398 C208.3952,489.3007 209.0938,502.6816 209.7359,514.9794 " fill="none" id="Objects&lt;-Artwork" style="stroke: #A80036; stroke-width: 1.0;"/><polygon fill="none" points="200.6666,475.5262,206.6143,455.1884,214.6476,474.7962,200.6666,475.5262" style="stroke: #A80036; stroke-width: 1.0;"/><text fill="#000000" font-family="sans-serif" font-size="13" lengthAdjust="spacingAndGlyphs" textLength="24" x="182.3029" y="475.0205">n..n</text><text fill="#000000" font-family="sans-serif" font-size="13" lengthAdjust="spacingAndGlyphs" textLength="24" x="183.971" y="503.9678">n..n</text><!--MD5=[01579a7abf21b3a402903e346f52d227]
reverse link Profile to Objects--><path d="M211.269,162.2828 C210.4244,174.7398 209.5212,188.0627 208.6073,201.5423 " fill="none" id="Profile&lt;-Objects" style="stroke: #A80036; stroke-width: 1.0;"/><polygon fill="none" points="204.2895,161.7418,212.6264,142.2612,218.2574,162.6889,204.2895,161.7418" style="stroke: #A80036; stroke-width: 1.0;"/><text fill="#000000" font-family="sans-serif" font-size="13" lengthAdjust="spacingAndGlyphs" textLength="24" x="186.4645" y="162.3744">n..1</text><text fill="#000000" font-family="sans-serif" font-size="13" lengthAdjust="spacingAndGlyphs" textLength="24" x="184.4112" y="190.8433">1..n</text><!--MD5=[79a81ae9b903fe410ebf2decbedf7070]
reverse link Profile to Marker--><path d="M164.7917,158.1246 C154.4903,172.3007 144.0567,187.4178 135,202 C129.0726,211.5437 123.1989,221.691 117.5471,231.9258 " fill="none" id="Profile&lt;-Marker" style="stroke: #A80036; stroke-width: 1.0;"/><polygon fill="none" points="159.2037,153.908,176.7334,142.0037,170.4534,162.2414,159.2037,153.908" style="stroke: #A80036; stroke-width: 1.0;"/><text fill="#000000" font-family="sans-serif" font-size="13" lengthAdjust="spacingAndGlyphs" textLength="24" x="145.2036" y="162.4367">n..n</text><text fill="#000000" font-family="sans-serif" font-size="13" lengthAdjust="spacingAndGlyphs" textLength="24" x="120.5584" y="208.5036">n..n</text><!--MD5=[0f031b44851ab12853a2bd6cd554ea3c]
reverse link Profile to Exhibit--><path d="M269.4994,158.1622 C280.326,172.3357 291.3417,187.4423 301,202 C315.8281,224.35 330.6067,249.9973 342.8106,272.3304 " fill="none" id="Profile&lt;-Exhibit" style="stroke: #A80036; stroke-width: 1.0;"/><polygon fill="none" points="263.7161,162.1281,256.9694,142.0412,274.7699,153.5366,263.7161,162.1281" style="stroke: #A80036; stroke-width: 1.0;"/><text fill="#000000" font-family="sans-serif" font-size="13" lengthAdjust="spacingAndGlyphs" textLength="24" x="264.4182" y="162.1235">n..1</text><text fill="#000000" font-family="sans-serif" font-size="13" lengthAdjust="spacingAndGlyphs" textLength="24" x="313.5332" y="261.2466">1..n</text><!--MD5=[3947e707d08f99ae68d6c84e7400a73d]
reverse link Exhibit to Artwork--><path d="M332.3176,402.4485 C322.4527,419.9028 311.645,438.2894 301,455 C288.3379,474.877 273.7023,495.9186 260.0459,514.8491 " fill="none" id="Exhibit&lt;-Artwork" style="stroke: #A80036; stroke-width: 1.0;"/><polygon fill="none" points="326.3567,398.7652,342.2104,384.706,338.5844,405.5831,326.3567,398.7652" style="stroke: #A80036; stroke-width: 1.0;"/><text fill="#000000" font-family="sans-serif" font-size="13" lengthAdjust="spacingAndGlyphs" textLength="24" x="313.1173" y="404.5437">n..n</text><text fill="#000000" font-family="sans-serif" font-size="13" lengthAdjust="spacingAndGlyphs" textLength="24" x="266.8731" y="503.8224">n..n</text><!--MD5=[857f227d5cf3035cb9265253df2f8835]
@startuml
Package (USERS) {
 Class (Profile) {
  #user - PK?
  +bio
  +country
  +personal_site
}

Class (Marker) {
  #owner - FK
  +source
  +uploaded_at
  +Author
  +title
  +patt
}

Class (Objects) {
  #owner - FK
  +source
  +uploaded_at
  +author
  +title
  +scale
  +position
  +rotation
}

Class (Artwork) {
  #author - FK
  #marker - FK
  #augmented - FK
  +title
  +description
  +created_at
}
}
 Package CORE{
  Class (Artwork2) {
  +name;
  +patt;
 +gif
  +scale
  +position
  +rotation
}
Class (Exhibit){  
  #owner - Fk
  +name
  +slug
  +artworks
  +creation_date
}
 Class (Marker) {
  #owner - FK
  + source
  +uploaded_at
  +Author
  +title
  +patt
}
Class (Objects) {
  #owner - FK
  + source
  +uploaded_at
  +author
  +title
  +scale
  +position
  +rotation
}
Class (Artwork2) {
  +title
  +description
  +created_at
}
}

Marker  "n..n" <- - "n..n" Artwork
Profile "1..n"<|- - "n..1"Artwork
Objects "n..n" <|- - "n..n" Artwork
Profile "n..1" <|- - "1..n" Objects
Profile "n..n" <|- - "n..n" Marker
Profile "n..1"<|- - "1..n" Exhibit
Exhibit "n..n"<|- -"n..n" Artwork
@enduml

PlantUML version 1.2019.12(Sun Nov 03 10:24:54 UTC 2019)
(GPL source distribution)
Java Runtime: OpenJDK Runtime Environment
JVM: OpenJDK 64-Bit Server VM
Java Version: 1.8.0_232-heroku-b09
Operating System: Linux
Default Encoding: UTF-8
Language: en
Country: US
--></g></svg>